<svg xmlns="http://www.w3.org/2000/svg" viewBox="0 0 490.23 661.29"><defs><style>.cls-1{fill:#fff;}.cls-2{opacity:0.7;}</style></defs><g id="Capa_2" data-name="Capa 2"><g id="Capa_1-2" data-name="Capa 1"><path class="cls-1" d="M55.52,3.6a33.5,33.5,0,0,0-16-3.6H5.47V82.43H25.39V56.83H38.92a35.7,35.7,0,0,0,16.34-3.5,25.29,25.29,0,0,0,10.61-9.88,29.07,29.07,0,0,0,3.72-14.91,29.62,29.62,0,0,0-3.66-14.92A25.59,25.59,0,0,0,55.52,3.6ZM47.37,35.16a10.72,10.72,0,0,1-4.61,4.4,16.25,16.25,0,0,1-7.54,1.57H25.39V16.06h9.83a16.71,16.71,0,0,1,7.52,1.53,10.6,10.6,0,0,1,4.63,4.32,13.32,13.32,0,0,1,1.57,6.63A13.45,13.45,0,0,1,47.37,35.16Z"/><path class="cls-1" d="M123.8,25.22a27.61,27.61,0,0,0-8.69-4A40.43,40.43,0,0,0,104.2,19.8,35.49,35.49,0,0,0,90,22.36a22.5,22.5,0,0,0-9.25,7,21.57,21.57,0,0,0-4.17,10.08l18.15.65a7.46,7.46,0,0,1,3-4.67A10.61,10.61,0,0,1,104,33.73a9,9,0,0,1,5.76,1.69,5.76,5.76,0,0,1,2.13,4.79v.2a3.36,3.36,0,0,1-1.47,2.92,12.1,12.1,0,0,1-4.69,1.57c-2.14.36-5,.7-8.49,1a49.43,49.43,0,0,0-8.86,1.55,24.09,24.09,0,0,0-7.32,3.36,15.55,15.55,0,0,0-5,5.76,18.9,18.9,0,0,0-1.81,8.69,18.34,18.34,0,0,0,2.63,10.17,16,16,0,0,0,7.21,6,28.3,28.3,0,0,0,18.23.91,17.16,17.16,0,0,0,6-3.26,17.77,17.77,0,0,0,4.2-5.31h.49v8.61h18.51v-42a18.35,18.35,0,0,0-2-8.73A18.54,18.54,0,0,0,123.8,25.22ZM112.05,60.45a9.27,9.27,0,0,1-1.53,5.3,10.61,10.61,0,0,1-4.08,3.56,12.58,12.58,0,0,1-5.74,1.29A9.19,9.19,0,0,1,95.13,69a5.43,5.43,0,0,1-2.2-4.67,5.89,5.89,0,0,1,1-3.48,7.4,7.4,0,0,1,3-2.4,17.57,17.57,0,0,1,4.73-1.37c.91-.13,1.86-.28,2.85-.44s2-.35,2.9-.56,1.81-.45,2.6-.69a12.1,12.1,0,0,0,2-.8Z"/><path class="cls-1" d="M193.09,22.72a21.38,21.38,0,0,0-11.33-2.92A21,21,0,0,0,170,23,17.47,17.47,0,0,0,163,32h-.68V20.61H143.56V82.43h19.69V47.17a13.57,13.57,0,0,1,1.3-6,9.1,9.1,0,0,1,3.63-3.84,10.75,10.75,0,0,1,5.45-1.35,9.4,9.4,0,0,1,7.31,2.9c1.75,1.93,2.62,4.62,2.59,8V82.43h19.68V43a26,26,0,0,0-2.63-12.18A20,20,0,0,0,193.09,22.72Z"/><path class="cls-1" d="M246.58,67.72a13.62,13.62,0,0,1-2.39.22,7.26,7.26,0,0,1-2.7-.46,3.31,3.31,0,0,1-1.71-1.57A6.26,6.26,0,0,1,239.2,63V35.1h11.14V20.61H239.2V5.8H219.51V20.61h-8.17V35.1h8.17V65.16A18.9,18.9,0,0,0,222,75.59a15.16,15.16,0,0,0,7.53,6.09,28.27,28.27,0,0,0,11.85,1.63,33.21,33.21,0,0,0,6.1-.76c1.7-.4,3-.74,4-1l-3-14.2C248.06,67.44,247.43,67.57,246.58,67.72Z"/><path class="cls-1" d="M305.34,23.81a36.86,36.86,0,0,0-33.44,0A27.15,27.15,0,0,0,261.15,35a35.51,35.51,0,0,0-3.76,16.72,35.43,35.43,0,0,0,3.76,16.68A27.15,27.15,0,0,0,271.9,79.59a36.86,36.86,0,0,0,33.44,0A27.15,27.15,0,0,0,316.09,68.4a35.43,35.43,0,0,0,3.76-16.68A35.51,35.51,0,0,0,316.09,35,27.15,27.15,0,0,0,305.34,23.81ZM298.5,60.53a13.77,13.77,0,0,1-3.76,6,8.73,8.73,0,0,1-6,2.17,9.13,9.13,0,0,1-6.18-2.17,13.5,13.5,0,0,1-3.82-6,27.85,27.85,0,0,1-1.31-8.93,28.21,28.21,0,0,1,1.31-9,13.46,13.46,0,0,1,3.82-6,9.13,9.13,0,0,1,6.18-2.18,8.74,8.74,0,0,1,6,2.18,13.73,13.73,0,0,1,3.76,6,28.21,28.21,0,0,1,1.31,9A27.85,27.85,0,0,1,298.5,60.53Z"/><path class="cls-1" d="M379.48,22.72a21.38,21.38,0,0,0-11.33-2.92A21,21,0,0,0,356.36,23a17.47,17.47,0,0,0-7,8.92h-.68V20.61H330V82.43h19.69V47.17a13.57,13.57,0,0,1,1.3-6,9.1,9.1,0,0,1,3.63-3.84A10.75,10.75,0,0,1,360,35.94a9.4,9.4,0,0,1,7.31,2.9c1.75,1.93,2.62,4.62,2.59,8V82.43H389.6V43A26,26,0,0,0,387,30.85,20,20,0,0,0,379.48,22.72Z"/><path class="cls-1" d="M460.08,56.27V51.36a38.43,38.43,0,0,0-2.21-13.51,28,28,0,0,0-6.2-9.92,26.05,26.05,0,0,0-9.46-6.08,34.37,34.37,0,0,0-12.08-2.05,31.7,31.7,0,0,0-16.22,4A27.51,27.51,0,0,0,403.25,35a35.36,35.36,0,0,0-3.79,16.76,36,36,0,0,0,3.77,17,26.09,26.09,0,0,0,10.78,11,34.4,34.4,0,0,0,16.73,3.85A38,38,0,0,0,445,81.12a25.06,25.06,0,0,0,10-7,22.38,22.38,0,0,0,4.93-10.57l-18.07-.52a8.8,8.8,0,0,1-2.3,3.46,10.09,10.09,0,0,1-3.66,2.13,14.53,14.53,0,0,1-4.75.73,12.85,12.85,0,0,1-6.52-1.57,10.77,10.77,0,0,1-4.23-4.41,14.08,14.08,0,0,1-1.49-6.62v-.52ZM424.62,35.48A11.87,11.87,0,0,1,430.54,34a11.7,11.7,0,0,1,5.77,1.39,10.32,10.32,0,0,1,4,3.84,11.19,11.19,0,0,1,1.49,5.6H418.89a11,11,0,0,1,5.73-9.36Z"/><g class="cls-2"><path class="cls-1" d="M28.22,148.22v-.38A11.26,11.26,0,0,0,34.38,144a10.75,10.75,0,0,0,2.3-7,12.4,12.4,0,0,0-1.86-6.68,13.61,13.61,0,0,0-5.34-4.89,17.12,17.12,0,0,0-8.18-1.84,19.32,19.32,0,0,0-8.22,1.71A15,15,0,0,0,7.13,130a12.09,12.09,0,0,0-2.37,7H12a6.47,6.47,0,0,1,1.39-3.88,8.41,8.41,0,0,1,3.38-2.5,11.3,11.3,0,0,1,4.48-.88,9.47,9.47,0,0,1,4.39,1,7.06,7.06,0,0,1,2.88,2.66,7.55,7.55,0,0,1,1,4,7.26,7.26,0,0,1-1.18,4.14,7.77,7.77,0,0,1-3.25,2.75,11.1,11.1,0,0,1-4.82,1H16.08v6.05h4.16a14.24,14.24,0,0,1,5.83,1.09,8.42,8.42,0,0,1,3.67,3A7.63,7.63,0,0,1,31,159.69a7.12,7.12,0,0,1-1.28,4.19,8.34,8.34,0,0,1-3.52,2.82,12.33,12.33,0,0,1-5.15,1,12.76,12.76,0,0,1-4.81-.86,8.73,8.73,0,0,1-3.5-2.46,6.45,6.45,0,0,1-1.48-3.79H3.73a12.39,12.39,0,0,0,2.41,7.05,14.86,14.86,0,0,0,6.13,4.75,21.7,21.7,0,0,0,8.83,1.71,21,21,0,0,0,9-1.84,15.45,15.45,0,0,0,6.19-5.06,12.29,12.29,0,0,0,2.25-7.28,11.47,11.47,0,0,0-2.69-7.81A12,12,0,0,0,28.22,148.22Z"/><path class="cls-1" d="M57.8,166.7l9.79-10.23a99.24,99.24,0,0,0,7-7.78,23.45,23.45,0,0,0,3.55-5.83,14.62,14.62,0,0,0,1-5.36,13.12,13.12,0,0,0-2-7.12,14,14,0,0,0-5.54-5,17.53,17.53,0,0,0-8.19-1.84,17.58,17.58,0,0,0-8.19,1.86,14.13,14.13,0,0,0-5.68,5.23,14.77,14.77,0,0,0-2.06,7.86h7.09a9.61,9.61,0,0,1,1.06-4.62,7.4,7.4,0,0,1,3-3.05,9.47,9.47,0,0,1,4.62-1.08,10.1,10.1,0,0,1,4.49,1,7.45,7.45,0,0,1,4.3,7,9.84,9.84,0,0,1-.86,4.09,18.79,18.79,0,0,1-2.61,4.05c-1.16,1.41-2.63,3.06-4.41,4.93L47.57,168.05v5.38H80v-6.36H57.8Z"/><polygon class="cls-1" points="88.23 132.24 88.23 139.35 100.01 131.66 100.3 131.66 100.3 173.43 107.75 173.43 107.75 124.21 100.51 124.21 88.23 132.24"/><path class="cls-1" d="M171.4,161.74a11.79,11.79,0,0,1-2.9,3.07,12.33,12.33,0,0,1-3.81,1.88,15,15,0,0,1-4.43.64,13.85,13.85,0,0,1-7.57-2.12,14.26,14.26,0,0,1-5.3-6.24,27.5,27.5,0,0,1,0-20.24,14.39,14.39,0,0,1,5.29-6.27,13.79,13.79,0,0,1,7.6-2.14,14.8,14.8,0,0,1,4.46.65,12.42,12.42,0,0,1,3.81,1.92,11.87,11.87,0,0,1,2.89,3.1,11.61,11.61,0,0,1,1.61,4.23h7.49a20.07,20.07,0,0,0-2.4-7.05,18,18,0,0,0-4.49-5.24,19.39,19.39,0,0,0-6.12-3.27,23.19,23.19,0,0,0-7.32-1.12,21.45,21.45,0,0,0-11.37,3,21.16,21.16,0,0,0-7.88,8.7,29.54,29.54,0,0,0-2.88,13.54A29.56,29.56,0,0,0,141,162.35a21,21,0,0,0,7.87,8.72,21.54,21.54,0,0,0,11.39,3,22.6,22.6,0,0,0,7.5-1.2,20.11,20.11,0,0,0,6.12-3.41,18.54,18.54,0,0,0,4.4-5.24,20.1,20.1,0,0,0,2.31-6.66l-7.49,0A11.68,11.68,0,0,1,171.4,161.74Z"/></g><g class="cls-2"><path class="cls-1" d="M3.78,528.89H8.15l1.64-10h8.76l-1.64,10h4.38l1.64-10h5.38l.71-4.38H23.65l1.41-8.61h5.42l.71-4.38H25.78l1.64-10H23l-1.64,10H12.64l1.64-10H9.9l-1.64,10H2.88l-.71,4.38H7.55l-1.42,8.61H.71L0,518.89H5.42Zm8.14-23h8.76l-1.41,8.61H10.51Z"/><path class="cls-1" d="M41.17,527.23a12.29,12.29,0,0,0,7.39,2.28,12,12,0,0,0,7.37-2.28,14.13,14.13,0,0,0,4.69-6.58,34.09,34.09,0,0,0,0-20.8,14.19,14.19,0,0,0-4.7-6.56A12,12,0,0,0,48.56,491a12.06,12.06,0,0,0-7.36,2.26,14.13,14.13,0,0,0-4.71,6.56,29.38,29.38,0,0,0-1.63,10.38,29.74,29.74,0,0,0,1.62,10.42A14.09,14.09,0,0,0,41.17,527.23Zm1.46-27.71a6.59,6.59,0,0,1,5.93-3.72,6.16,6.16,0,0,1,4.31,1.66,10.77,10.77,0,0,1,2.79,4.89,27.46,27.46,0,0,1,1,7.87q0,7-2.14,10.71a6.6,6.6,0,0,1-5.94,3.71A6.17,6.17,0,0,1,44.22,523a10.62,10.62,0,0,1-2.79-4.87,27.49,27.49,0,0,1-1-7.89Q40.47,503.25,42.63,499.52Z"/><path class="cls-1" d="M74.35,527.23a12.29,12.29,0,0,0,7.39,2.28,12,12,0,0,0,7.37-2.28,14.13,14.13,0,0,0,4.69-6.58,29.76,29.76,0,0,0,1.62-10.43,29.28,29.28,0,0,0-1.63-10.37,14.19,14.19,0,0,0-4.7-6.56,13.07,13.07,0,0,0-14.71,0,14.13,14.13,0,0,0-4.71,6.56A29.38,29.38,0,0,0,68,510.22a29.74,29.74,0,0,0,1.62,10.42A14.09,14.09,0,0,0,74.35,527.23Zm1.46-27.71a6.6,6.6,0,0,1,5.93-3.72,6.16,6.16,0,0,1,4.31,1.66,10.77,10.77,0,0,1,2.79,4.89,27.46,27.46,0,0,1,1,7.87q0,7-2.14,10.71a6.6,6.6,0,0,1-5.94,3.71A6.17,6.17,0,0,1,77.4,523a10.53,10.53,0,0,1-2.78-4.87,27.12,27.12,0,0,1-1-7.89Q73.66,503.25,75.81,499.52Z"/><path class="cls-1" d="M107.61,528.05a18.33,18.33,0,0,0,13.81,0,11.35,11.35,0,0,0,4.7-3.72,9.18,9.18,0,0,0,1.71-5.4,9.6,9.6,0,0,0-1-4.37,9.81,9.81,0,0,0-2.7-3.34,8.24,8.24,0,0,0-3.78-1.71v-.22a7.57,7.57,0,0,0,4.41-3,8.79,8.79,0,0,0,1.72-5.32,8.89,8.89,0,0,0-1.57-5.1,10.7,10.7,0,0,0-4.24-3.56,13.83,13.83,0,0,0-6.1-1.3,14.1,14.1,0,0,0-6.15,1.29,10.53,10.53,0,0,0-4.24,3.55,9.37,9.37,0,0,0,.14,10.44,7.47,7.47,0,0,0,4.46,3v.22a8.51,8.51,0,0,0-3.83,1.71,9.72,9.72,0,0,0-2.71,3.34,9.56,9.56,0,0,0-1,4.37,9,9,0,0,0,1.68,5.4A11.32,11.32,0,0,0,107.61,528.05Zm.51-26.6a5.5,5.5,0,0,1,.78-3.06,5.42,5.42,0,0,1,2.25-2,7.55,7.55,0,0,1,3.39-.72,7.43,7.43,0,0,1,3.34.72,5.42,5.42,0,0,1,2.25,2,5.78,5.78,0,0,1,.83,3.06,5.92,5.92,0,0,1-.85,3.12,5.7,5.7,0,0,1-2.27,2.08,7,7,0,0,1-3.3.75,7.19,7.19,0,0,1-3.35-.75,5.53,5.53,0,0,1-3.07-5.2Zm-.2,13.66a6.78,6.78,0,0,1,2.69-2.35,8.74,8.74,0,0,1,3.93-.86,8.49,8.49,0,0,1,3.88.86,6.91,6.91,0,0,1,2.69,2.35,6.22,6.22,0,0,1,1,3.45,6,6,0,0,1-.95,3.28,6.16,6.16,0,0,1-2.63,2.17,9.69,9.69,0,0,1-4,.77,9.85,9.85,0,0,1-4.05-.77,6.08,6.08,0,0,1-2.64-2.17,5.79,5.79,0,0,1-.9-3.28A6,6,0,0,1,107.92,515.11Z"/><path class="cls-1" d="M159.43,517.58a35.31,35.31,0,0,0,1-8.72,27.06,27.06,0,0,0-1.19-8.55,14.49,14.49,0,0,0-3.14-5.46,11.66,11.66,0,0,0-4.39-2.92,14.27,14.27,0,0,0-4.92-.91,13,13,0,0,0-6.83,1.65,12,12,0,0,0-4.53,4.57,13,13,0,0,0-1.61,6.42,12.59,12.59,0,0,0,1.57,6.33,11.68,11.68,0,0,0,4.21,4.36,11.17,11.17,0,0,0,5.88,1.58,11,11,0,0,0,3.74-.62,10.61,10.61,0,0,0,3.16-1.75,10,10,0,0,0,2.36-2.7H155q0,6.45-2.31,10a7.23,7.23,0,0,1-6.41,3.58,6.31,6.31,0,0,1-4.36-1.49,7.15,7.15,0,0,1-2.24-3.89h-5.56a11.85,11.85,0,0,0,2,5.35,11.2,11.2,0,0,0,4.22,3.64,12.84,12.84,0,0,0,5.92,1.32A12,12,0,0,0,156.61,524,19.92,19.92,0,0,0,159.43,517.58Zm-5.71-11.09a8.12,8.12,0,0,1-1.63,2.5,7.56,7.56,0,0,1-2.42,1.73,7.31,7.31,0,0,1-3,.62,7.16,7.16,0,0,1-3.82-1,7.35,7.35,0,0,1-2.63-2.79,8.12,8.12,0,0,1-1-3.94,8,8,0,0,1,1-3.94,7.47,7.47,0,0,1,2.69-2.83,7.14,7.14,0,0,1,3.84-1.05,7,7,0,0,1,3.86,1.08,7.91,7.91,0,0,1,2.68,2.86,7.82,7.82,0,0,1,1,3.83A7.66,7.66,0,0,1,153.72,506.49Z"/><path class="cls-1" d="M193.06,508.86a27.06,27.06,0,0,0-1.19-8.55,14.36,14.36,0,0,0-3.14-5.46,11.63,11.63,0,0,0-4.38-2.92,14.33,14.33,0,0,0-4.93-.91,13,13,0,0,0-6.83,1.65,11.88,11.88,0,0,0-4.52,4.57,12.87,12.87,0,0,0-1.62,6.42A12.59,12.59,0,0,0,168,510a11.75,11.75,0,0,0,4.21,4.36,11.22,11.22,0,0,0,5.88,1.58,11,11,0,0,0,3.74-.62,10.61,10.61,0,0,0,3.16-1.75,10,10,0,0,0,2.36-2.7h.3q0,6.45-2.32,10a7.21,7.21,0,0,1-6.4,3.58,6.31,6.31,0,0,1-4.37-1.49,7.15,7.15,0,0,1-2.24-3.89h-5.56a12,12,0,0,0,2,5.35,11.27,11.27,0,0,0,4.22,3.64A12.85,12.85,0,0,0,179,529.4,12,12,0,0,0,189.26,524a19.92,19.92,0,0,0,2.82-6.45A34.84,34.84,0,0,0,193.06,508.86Zm-6.69-2.37a8.27,8.27,0,0,1-1.62,2.5,7.71,7.71,0,0,1-2.43,1.73,7.28,7.28,0,0,1-3,.62,7.16,7.16,0,0,1-3.82-1,7.43,7.43,0,0,1-2.63-2.79,8.12,8.12,0,0,1-1-3.94,8,8,0,0,1,1-3.94,7.47,7.47,0,0,1,2.69-2.83,7.19,7.19,0,0,1,3.84-1.05,7,7,0,0,1,3.87,1.08,7.9,7.9,0,0,1,3.64,6.69A7.66,7.66,0,0,1,186.37,506.49Z"/><polygon class="cls-1" points="216.19 496.63 199.89 528.88 205.78 528.88 222.03 496.52 222.03 491.53 197.33 491.53 197.33 496.36 216.19 496.36 216.19 496.63"/><path class="cls-1" d="M28.16,570.91a12.33,12.33,0,0,0,1.43-6,12.56,12.56,0,0,0-1.43-6.08,9.93,9.93,0,0,0-4.29-4.14,15.64,15.64,0,0,0-7.22-1.49H3.34v37.36H9V576.39h7.67l.35,0,7.6,14.16H31l-8.28-15.12c.38-.14.77-.29,1.12-.46A9.77,9.77,0,0,0,28.16,570.91Zm-7.58-.16a10.67,10.67,0,0,1-4.46.79H9V558h7.08a10.55,10.55,0,0,1,4.52.83,5.43,5.43,0,0,1,2.53,2.38,7.85,7.85,0,0,1,.81,3.67,7.41,7.41,0,0,1-.8,3.59A5.15,5.15,0,0,1,20.58,570.75Z"/><path class="cls-1" d="M52.24,591a16.8,16.8,0,0,0,8-1.88,13.74,13.74,0,0,0,5.51-5.34,16,16,0,0,0,2-8.16v-4.25H53.1v4.65h9.22a10.78,10.78,0,0,1-1.24,5.08,8.62,8.62,0,0,1-3.52,3.51,10.89,10.89,0,0,1-5.32,1.24,10.72,10.72,0,0,1-5.85-1.62,10.9,10.9,0,0,1-4-4.76,20.65,20.65,0,0,1,0-15.33,11,11,0,0,1,4-4.75A10.28,10.28,0,0,1,52,557.8a11.58,11.58,0,0,1,3.42.49,9,9,0,0,1,2.79,1.44,9.44,9.44,0,0,1,2.1,2.26,11.9,11.9,0,0,1,1.42,3h5.78a14.25,14.25,0,0,0-5.23-8.88,15.29,15.29,0,0,0-4.67-2.54,17.46,17.46,0,0,0-5.64-.89A16.71,16.71,0,0,0,45.3,554,15.28,15.28,0,0,0,40,557.79a17.55,17.55,0,0,0-3.49,6.05,24.22,24.22,0,0,0-1.24,8,22.7,22.7,0,0,0,2.13,10.2,15.76,15.76,0,0,0,6,6.63A16.68,16.68,0,0,0,52.24,591Z"/><path class="cls-1" d="M88.62,553.17H74.93v37.36H89.25a16.58,16.58,0,0,0,7.14-1.33,9.22,9.22,0,0,0,4.13-3.59,9.91,9.91,0,0,0,1.34-5.13,9.7,9.7,0,0,0-1.17-4.93,8.79,8.79,0,0,0-2.94-3.13,7.61,7.61,0,0,0-3.64-1.19v-.37a10,10,0,0,0,3.14-1.39,6.92,6.92,0,0,0,2.29-2.56,8.22,8.22,0,0,0,.86-3.93,9.65,9.65,0,0,0-1.3-5,9.07,9.07,0,0,0-3.9-3.52A14.66,14.66,0,0,0,88.62,553.17ZM95.37,577a6.17,6.17,0,0,1,.89,3.24,5,5,0,0,1-1.75,3.92q-1.76,1.57-5.8,1.57H80.57v-12h8.34a8.26,8.26,0,0,1,3.91.87A6.47,6.47,0,0,1,95.37,577ZM94,566.55a6,6,0,0,1-2.43,2.05,7.73,7.73,0,0,1-3.42.73H80.57V558h7.7a7,7,0,0,1,5,1.56,5.22,5.22,0,0,1,1.62,3.89A5.44,5.44,0,0,1,94,566.55Z"/><path class="cls-1" d="M118.51,588.9a49,49,0,0,1-2.31-8.26,45.76,45.76,0,0,1-.86-8.79,45,45,0,0,1,.49-6.6,52.94,52.94,0,0,1,1.37-6.47,41.23,41.23,0,0,1,2-5.76,23,23,0,0,1,2.52-4.43h-5a37.5,37.5,0,0,0-5.27,10.64,45.21,45.21,0,0,0,0,25.26,37.45,37.45,0,0,0,5.27,10.63h5A26.18,26.18,0,0,1,118.51,588.9Z"/><path class="cls-1" d="M147.79,554.93a13.07,13.07,0,0,0-14.71,0,14.11,14.11,0,0,0-4.71,6.57,29.3,29.3,0,0,0-1.63,10.38,29.72,29.72,0,0,0,1.62,10.41,14.16,14.16,0,0,0,4.69,6.59,13.11,13.11,0,0,0,14.76,0,14.21,14.21,0,0,0,4.69-6.59,29.74,29.74,0,0,0,1.62-10.42,29.2,29.2,0,0,0-1.63-10.37A14.17,14.17,0,0,0,147.79,554.93Zm-1.41,27.64a6.6,6.6,0,0,1-5.94,3.71,6.2,6.2,0,0,1-4.34-1.65,10.58,10.58,0,0,1-2.78-4.87,27.56,27.56,0,0,1-1-7.89q0-7,2.17-10.71a6.6,6.6,0,0,1,5.93-3.72,6.11,6.11,0,0,1,4.31,1.67,10.68,10.68,0,0,1,2.79,4.88,27.14,27.14,0,0,1,1,7.88Q148.52,578.88,146.38,582.57Z"/><path class="cls-1" d="M159.54,596.59c-.28,1.29-.5,2.3-.66,3.06h3.87c.29-.8.67-1.89,1.12-3.25s.9-2.84,1.33-4.42a33,33,0,0,0,.92-4.57l.28-2h-5.26l-.18,2c-.13,1.64-.33,3.26-.6,4.84S159.82,595.31,159.54,596.59Z"/><polygon class="cls-1" points="183.65 590.53 183.65 553.17 178.16 553.17 168.84 559.26 168.84 564.66 177.78 558.82 178 558.82 178 590.53 183.65 590.53"/><path class="cls-1" d="M218.27,585.8a9.25,9.25,0,0,0,1.7-5.52,8.7,8.7,0,0,0-2-5.93,9.08,9.08,0,0,0-5.78-3v-.29a8.52,8.52,0,0,0,4.68-2.94,8.12,8.12,0,0,0,1.75-5.32,9.29,9.29,0,0,0-1.42-5.07,10.28,10.28,0,0,0-4-3.72,13,13,0,0,0-6.21-1.39,14.79,14.79,0,0,0-6.24,1.29,11.45,11.45,0,0,0-4.51,3.6,9.13,9.13,0,0,0-1.8,5.32h5.46a4.89,4.89,0,0,1,1.05-2.94,6.37,6.37,0,0,1,2.57-1.9,8.7,8.7,0,0,1,3.4-.67,7.29,7.29,0,0,1,3.33.73,5.42,5.42,0,0,1,2.19,2,5.8,5.8,0,0,1,.77,3,5.62,5.62,0,0,1-.89,3.15,6,6,0,0,1-2.47,2.08,8.49,8.49,0,0,1-3.66.75H203v4.6h3.16a10.73,10.73,0,0,1,4.42.82,6.46,6.46,0,0,1,2.79,2.25,5.82,5.82,0,0,1,1,3.31,5.38,5.38,0,0,1-1,3.19,6.36,6.36,0,0,1-2.67,2.14,9.47,9.47,0,0,1-3.91.77,9.72,9.72,0,0,1-3.65-.66,6.54,6.54,0,0,1-2.65-1.87,4.9,4.9,0,0,1-1.13-2.87h-5.72a9.39,9.39,0,0,0,1.83,5.35,11.27,11.27,0,0,0,4.65,3.6,16.41,16.41,0,0,0,6.7,1.3,15.84,15.84,0,0,0,6.81-1.4A11.7,11.7,0,0,0,218.27,585.8Z"/><polygon class="cls-1" points="228.11 590.53 234 590.53 250.25 558.17 250.25 553.17 225.55 553.17 225.55 558 244.41 558 244.41 558.28 228.11 590.53"/><path class="cls-1" d="M253.68,599.65c.29-.8.67-1.89,1.12-3.25s.9-2.84,1.33-4.42a33.11,33.11,0,0,0,.93-4.57l.27-2h-5.25l-.19,2c-.13,1.64-.33,3.26-.6,4.84s-.54,3-.82,4.29-.5,2.3-.66,3.06Z"/><polygon class="cls-1" points="268.93 558.82 268.93 590.53 274.58 590.53 274.58 553.17 269.09 553.17 259.77 559.26 259.77 564.66 268.71 558.82 268.93 558.82"/><path class="cls-1" d="M304.15,567.6a11.45,11.45,0,0,0-6.09-1.63,10.46,10.46,0,0,0-3.89.72,8.71,8.71,0,0,0-2.91,1.76H291L292.23,558h15.85v-4.83H287.54L285.44,572l5.16.77a8,8,0,0,1,2.77-1.53,10.56,10.56,0,0,1,3.42-.59,7.76,7.76,0,0,1,3.94,1,7.25,7.25,0,0,1,2.71,2.81,8.84,8.84,0,0,1,0,8.07,7.07,7.07,0,0,1-2.63,2.74,7.32,7.32,0,0,1-3.82,1,7.13,7.13,0,0,1-4.63-1.55,5.49,5.49,0,0,1-2.14-4h-5.47a9.65,9.65,0,0,0,1.74,5.29,11.2,11.2,0,0,0,4.35,3.64A13.92,13.92,0,0,0,297,591a13.48,13.48,0,0,0,6.67-1.63,12,12,0,0,0,4.56-4.48,12.59,12.59,0,0,0,1.63-6.48,13,13,0,0,0-1.52-6.43A11.62,11.62,0,0,0,304.15,567.6Z"/><polygon class="cls-1" points="325.06 558.82 325.06 590.53 330.71 590.53 330.71 553.17 325.22 553.17 315.9 559.26 315.9 564.66 324.84 558.82 325.06 558.82"/><path class="cls-1" d="M344.3,548.59h-5a26.2,26.2,0,0,1,3.24,6.22,48.34,48.34,0,0,1,2.32,8.26,46.55,46.55,0,0,1,.86,8.78,45.26,45.26,0,0,1-.5,6.6,51.43,51.43,0,0,1-1.36,6.49,42.88,42.88,0,0,1-2.05,5.75,23,23,0,0,1-2.51,4.43h5a37.74,37.74,0,0,0,5.28-10.63,45.21,45.21,0,0,0,0-25.26A37.8,37.8,0,0,0,344.3,548.59Z"/><path class="cls-1" d="M13.22,621.07A10.42,10.42,0,0,1,19,619.44a11.65,11.65,0,0,1,3.38.49,9.48,9.48,0,0,1,2.89,1.46,8.81,8.81,0,0,1,2.19,2.36A8.6,8.6,0,0,1,28.68,627h5.69a15.59,15.59,0,0,0-1.83-5.36,13.9,13.9,0,0,0-3.41-4,14.71,14.71,0,0,0-4.64-2.48,17.56,17.56,0,0,0-5.56-.85,16.24,16.24,0,0,0-8.62,2.31,16,16,0,0,0-6,6.6,25.25,25.25,0,0,0,0,20.55,16,16,0,0,0,6,6.61,16.28,16.28,0,0,0,8.64,2.31,17.38,17.38,0,0,0,5.7-.91,15.16,15.16,0,0,0,4.64-2.59,14,14,0,0,0,3.34-4,15.44,15.44,0,0,0,1.76-5.06l-5.69,0a8.87,8.87,0,0,1-1.25,3.16,9.06,9.06,0,0,1-2.2,2.33,9.64,9.64,0,0,1-2.89,1.43,11.68,11.68,0,0,1-3.37.48,10.54,10.54,0,0,1-5.74-1.6,10.82,10.82,0,0,1-4-4.74,20.8,20.8,0,0,1,0-15.36A11,11,0,0,1,13.22,621.07Z"/><polygon class="cls-1" points="60.29 643.85 59.85 643.85 47.95 614.81 41.12 614.81 41.12 652.17 46.48 652.17 46.48 625.12 46.83 625.12 57.84 652.11 62.29 652.11 73.31 625.13 73.66 625.13 73.66 652.17 79.02 652.17 79.02 614.81 72.18 614.81 60.29 643.85"/><polygon class="cls-1" points="116.09 614.81 108.99 614.81 93.32 632.65 92.87 632.65 92.87 614.81 87.23 614.81 87.23 652.17 92.87 652.17 92.87 640.55 97.28 635.48 109.36 652.17 116.14 652.17 101.02 631.63 116.09 614.81"/><polygon class="cls-1" points="135.04 631.79 134.64 631.79 124.88 614.81 118.48 614.81 132.03 637.5 132.03 652.17 137.65 652.17 137.65 637.5 151.2 614.81 144.8 614.81 135.04 631.79"/><polygon class="cls-1" points="185.38 614.81 178.29 614.81 162.62 632.65 162.16 632.65 162.16 614.81 156.53 614.81 156.53 652.17 162.16 652.17 162.16 640.55 166.58 635.48 178.65 652.17 185.44 652.17 170.32 631.63 185.38 614.81"/><path class="cls-1" d="M199.32,620.42a42.55,42.55,0,0,1,2-5.76,23,23,0,0,1,2.52-4.43h-5a37.77,37.77,0,0,0-5.27,10.64,45.21,45.21,0,0,0,0,25.26,37.71,37.71,0,0,0,5.27,10.63h5a26.18,26.18,0,0,1-3.25-6.22,49,49,0,0,1-2.31-8.26,46.57,46.57,0,0,1-.86-8.79,45.13,45.13,0,0,1,.49-6.6A52.94,52.94,0,0,1,199.32,620.42Z"/><polygon class="cls-1" points="208.92 620.9 208.92 626.3 217.85 620.46 218.07 620.46 218.07 652.17 223.73 652.17 223.73 614.81 218.24 614.81 208.92 620.9"/><path class="cls-1" d="M254.19,616.57a13.07,13.07,0,0,0-14.71,0,14.11,14.11,0,0,0-4.71,6.57,29.3,29.3,0,0,0-1.63,10.38,29.72,29.72,0,0,0,1.62,10.41,14.16,14.16,0,0,0,4.69,6.59,12.18,12.18,0,0,0,7.39,2.28,12.05,12.05,0,0,0,7.37-2.27,14.21,14.21,0,0,0,4.69-6.59,29.7,29.7,0,0,0,1.62-10.42,29.2,29.2,0,0,0-1.63-10.37A14.17,14.17,0,0,0,254.19,616.57Zm-1.41,27.64a6.6,6.6,0,0,1-5.94,3.71,6.2,6.2,0,0,1-4.34-1.65,10.67,10.67,0,0,1-2.78-4.87,27.56,27.56,0,0,1-1-7.89q0-7,2.17-10.71a6.6,6.6,0,0,1,5.93-3.72,6.11,6.11,0,0,1,4.31,1.67,10.76,10.76,0,0,1,2.8,4.89,27.44,27.44,0,0,1,1,7.87Q254.92,640.51,252.78,644.21Z"/><path class="cls-1" d="M287.37,616.57a13.07,13.07,0,0,0-14.71,0,14.11,14.11,0,0,0-4.71,6.57,34.06,34.06,0,0,0,0,20.79,14.16,14.16,0,0,0,4.69,6.59,12.18,12.18,0,0,0,7.39,2.28,12.05,12.05,0,0,0,7.37-2.27,14.14,14.14,0,0,0,4.69-6.59,29.7,29.7,0,0,0,1.62-10.42,29.2,29.2,0,0,0-1.63-10.37A14.1,14.1,0,0,0,287.37,616.57ZM286,644.21a6.6,6.6,0,0,1-5.94,3.71,6.2,6.2,0,0,1-4.34-1.65,10.67,10.67,0,0,1-2.78-4.87,27.56,27.56,0,0,1-1-7.89q0-7,2.17-10.71a6.6,6.6,0,0,1,5.93-3.72,6.11,6.11,0,0,1,4.31,1.67,10.76,10.76,0,0,1,2.8,4.89,27.44,27.44,0,0,1,1,7.87Q288.1,640.51,286,644.21Z"/><path class="cls-1" d="M300.54,649.1c-.13,1.64-.33,3.26-.6,4.84s-.54,3-.82,4.29-.5,2.3-.66,3.06h3.87c.29-.8.67-1.89,1.12-3.25s.9-2.83,1.33-4.42a31.62,31.62,0,0,0,.92-4.57l.28-2h-5.25Z"/><path class="cls-1" d="M332.56,616.57a13.09,13.09,0,0,0-14.72,0,14.17,14.17,0,0,0-4.7,6.57,29.3,29.3,0,0,0-1.63,10.38,29.72,29.72,0,0,0,1.62,10.41,14,14,0,0,0,4.69,6.59,13.09,13.09,0,0,0,14.75,0,14.07,14.07,0,0,0,4.69-6.59,29.69,29.69,0,0,0,1.63-10.42,29.19,29.19,0,0,0-1.64-10.37A14.15,14.15,0,0,0,332.56,616.57Zm-1.42,27.64a6.6,6.6,0,0,1-5.94,3.71,6.22,6.22,0,0,1-4.34-1.65,10.67,10.67,0,0,1-2.78-4.87,27.59,27.59,0,0,1-1-7.89q0-7,2.17-10.71a6.58,6.58,0,0,1,5.92-3.72,6.13,6.13,0,0,1,4.32,1.67,10.66,10.66,0,0,1,2.79,4.89,27.41,27.41,0,0,1,1,7.87Q333.29,640.51,331.14,644.21Z"/><path class="cls-1" d="M345.73,649.1c-.14,1.64-.34,3.26-.61,4.84s-.54,3-.82,4.29-.49,2.3-.65,3.06h3.86c.3-.8.67-1.89,1.13-3.25s.9-2.83,1.33-4.42a33,33,0,0,0,.92-4.57l.27-2h-5.25Z"/><path class="cls-1" d="M375.86,633v-.29a8.52,8.52,0,0,0,4.68-2.94,8.17,8.17,0,0,0,1.74-5.32,9.37,9.37,0,0,0-1.41-5.07,10.42,10.42,0,0,0-4.05-3.72,13.05,13.05,0,0,0-6.21-1.39,14.76,14.76,0,0,0-6.24,1.29,11.64,11.64,0,0,0-4.52,3.6,9.19,9.19,0,0,0-1.79,5.32h5.45a4.9,4.9,0,0,1,1.06-2.94,6.4,6.4,0,0,1,2.56-1.9,8.77,8.77,0,0,1,3.4-.67,7.24,7.24,0,0,1,3.33.73,5.29,5.29,0,0,1,2.19,2,5.71,5.71,0,0,1,.78,3,5.55,5.55,0,0,1-.9,3.15,5.88,5.88,0,0,1-2.47,2.08,8.41,8.41,0,0,1-3.65.75h-3.16v4.6h3.16a10.73,10.73,0,0,1,4.42.82,6.46,6.46,0,0,1,2.79,2.25,5.82,5.82,0,0,1,1,3.31,5.45,5.45,0,0,1-1,3.19,6.34,6.34,0,0,1-2.67,2.14,9.47,9.47,0,0,1-3.91.77,9.68,9.68,0,0,1-3.65-.66,6.57,6.57,0,0,1-2.66-1.87,4.89,4.89,0,0,1-1.12-2.87h-5.73a9.47,9.47,0,0,0,1.84,5.35,11.15,11.15,0,0,0,4.65,3.6,16.38,16.38,0,0,0,6.7,1.3,15.88,15.88,0,0,0,6.81-1.4,11.67,11.67,0,0,0,4.69-3.84,9.26,9.26,0,0,0,1.71-5.52,8.71,8.71,0,0,0-2-5.93A9.06,9.06,0,0,0,375.86,633Z"/><polygon class="cls-1" points="389.91 620.9 389.91 626.3 398.85 620.46 399.06 620.46 399.06 652.17 404.72 652.17 404.72 614.81 399.23 614.81 389.91 620.9"/><path class="cls-1" d="M414.44,649.1c-.13,1.64-.33,3.26-.6,4.84s-.54,3-.82,4.29-.5,2.3-.66,3.06h3.87c.29-.8.67-1.89,1.12-3.25s.9-2.83,1.33-4.42a33,33,0,0,0,.92-4.57l.28-2h-5.26Z"/><polygon class="cls-1" points="422.32 620.9 422.32 626.3 431.26 620.46 431.48 620.46 431.48 652.17 437.13 652.17 437.13 614.81 431.64 614.81 422.32 620.9"/><path class="cls-1" d="M469.43,634.5a8.27,8.27,0,0,0-3.78-1.7v-.22a7.61,7.61,0,0,0,4.41-3,9.14,9.14,0,0,0,.15-10.43A10.77,10.77,0,0,0,466,615.6a13.84,13.84,0,0,0-6.11-1.3,14.05,14.05,0,0,0-6.14,1.29,10.64,10.64,0,0,0-4.25,3.55,9.39,9.39,0,0,0,.14,10.45,7.56,7.56,0,0,0,4.47,3v.22a8.45,8.45,0,0,0-3.83,1.7,9.61,9.61,0,0,0-3.69,7.71,9,9,0,0,0,1.68,5.4,11.35,11.35,0,0,0,4.7,3.72,18.33,18.33,0,0,0,13.81,0,11.35,11.35,0,0,0,4.7-3.72,9.13,9.13,0,0,0,1.71-5.4,9.73,9.73,0,0,0-1-4.37A9.93,9.93,0,0,0,469.43,634.5Zm-16-9.77a5.61,5.61,0,0,1,.79-3.06,5.3,5.3,0,0,1,2.25-2,7.51,7.51,0,0,1,3.38-.72,7.37,7.37,0,0,1,3.34.72,5.42,5.42,0,0,1,2.25,2,5.81,5.81,0,0,1,.83,3.06,5.91,5.91,0,0,1-.84,3.12,5.8,5.8,0,0,1-2.28,2.08,7,7,0,0,1-3.3.75,7.15,7.15,0,0,1-3.34-.75,5.66,5.66,0,0,1-2.28-2.08A5.8,5.8,0,0,1,453.44,624.73Zm13.06,20.39a6.13,6.13,0,0,1-2.62,2.17,9.71,9.71,0,0,1-4,.77,9.92,9.92,0,0,1-4.05-.77,6,6,0,0,1-2.63-2.17,5.68,5.68,0,0,1-.91-3.28,6,6,0,0,1,1-3.44,6.82,6.82,0,0,1,2.7-2.36,8.66,8.66,0,0,1,3.92-.86,8.53,8.53,0,0,1,3.89.86,6.86,6.86,0,0,1,2.69,2.36,6.16,6.16,0,0,1,1,3.44A5.86,5.86,0,0,1,466.5,645.12Z"/><path class="cls-1" d="M488.43,620.87a37.77,37.77,0,0,0-5.27-10.64h-5a26.57,26.57,0,0,1,3.25,6.22,49.27,49.27,0,0,1,2.31,8.26,46.55,46.55,0,0,1,.86,8.78,45.23,45.23,0,0,1-.49,6.6,53.26,53.26,0,0,1-1.37,6.49,44.33,44.33,0,0,1-2,5.75,23,23,0,0,1-2.52,4.43h5a37.71,37.71,0,0,0,5.27-10.63,45.21,45.21,0,0,0,0-25.26Z"/></g></g></g></svg>