<svg xmlns="http://www.w3.org/2000/svg" viewBox="0 0 778.74 153.47"><defs><style>.cls-1{fill:#fff;}.cls-2{fill:#f5b700;}</style></defs><g id="Capa_2" data-name="Capa 2"><g id="Capa_1-2" data-name="Capa 1"><path class="cls-1" d="M31.1,82.87H61.37c26.3,0,42.84-15.22,42.84-41.52S87.67,0,61.37,0H0V110.82H31.1ZM31.1,28H57.89c10.92,0,15.39,2.15,15.39,13.4,0,11.42-4.47,13.57-15.39,13.57H31.1Z"/><rect class="cls-1" x="110.33" width="31.1" height="110.82"/><polygon class="cls-1" points="184.72 67.49 183.39 46.31 185.54 46.31 199.6 68.15 232.35 110.82 265.43 110.82 265.43 0 234.34 0 234.34 42.84 235.83 66.99 233.68 66.99 217.47 41.52 186.7 0 153.62 0 153.62 110.82 184.72 110.82 184.72 67.49"/><path class="cls-1" d="M313,90.31h50.5l8.44,20.51h35.73L359.68,0H317.29L269.48,110.82h34.9Zm18.2-43.5,7.11-18.69h0l7.28,18.69,6.45,15.55H324.73Z"/><path class="cls-1" d="M665.61,90.31h50.5l15.59,37.91,47,25.25L712.31,0h-42.4l-47.8,110.82H657Zm18.2-43.5,7.11-18.69H691l7.28,18.69,6.45,15.55H677.36Z"/><polygon class="cls-1" points="503.65 82.87 442.79 82.87 442.79 0 411.69 0 411.69 110.82 503.65 110.82 503.65 82.87"/><polygon class="cls-1" points="615.44 82.87 555.9 82.87 555.9 80.72 614.45 27.95 614.45 0 512.57 0 512.57 27.95 570.62 27.95 570.62 30.1 511.57 82.87 511.57 110.82 615.44 110.82 615.44 82.87"/><polygon class="cls-2" points="731.7 128.22 0 128.22 0 153.47 743.3 153.47 763.99 153.47 778.74 153.47 731.7 128.22"/></g></g></svg>