<svg xmlns="http://www.w3.org/2000/svg" viewBox="0 0 1208.48 327.27"><defs><style>.cls-1{fill:#fff;}</style></defs><g id="Capa_2" data-name="Capa 2"><g id="Capa_1-2" data-name="Capa 1"><path class="cls-1" d="M47.56,221.19H41.8l-11.38-16a36.3,36.3,0,0,1-4,.21H13.05v15.79H7.79v-49.8H26.43c12.67,0,20.35,6.4,20.35,17.07,0,7.83-4.13,13.31-11.38,15.66ZM26.29,200.92c10,0,15.23-4.63,15.23-12.46s-5.27-12.52-15.23-12.52H13.05v25Z"/><path class="cls-1" d="M90.75,204.05H59.44c.57,7.82,6.55,13,14.73,13a14.75,14.75,0,0,0,11.45-4.91l2.85,3.27c-3.34,4-8.54,6.12-14.44,6.12-11.67,0-19.64-8-19.64-19.07s7.75-19,18.29-19,18.14,7.76,18.14,19C90.82,202.91,90.75,203.48,90.75,204.05Zm-31.31-3.78H86c-.64-7.32-6-12.45-13.3-12.45S60.08,193,59.44,200.27Z"/><path class="cls-1" d="M130.94,183.77h4.84v32.87c0,12.88-6.33,18.71-18.71,18.71-6.83,0-13.52-2.06-17.43-5.76l2.56-3.84c3.56,3.2,9,5.12,14.73,5.12,9.46,0,13.8-4.34,13.8-13.59v-4.77c-3.13,4.77-8.47,7.26-14.59,7.26-10.67,0-18.78-7.47-18.78-18.21s8.11-18.08,18.78-18.08c6.27,0,11.67,2.56,14.8,7.47Zm-.07,17.79c0-8.12-6-13.66-14.23-13.66s-14.16,5.54-14.16,13.66,5.91,13.73,14.16,13.73S130.87,209.67,130.87,201.56Z"/><path class="cls-1" d="M178.61,183.77h5v37.42h-4.83v-6.83c-2.64,4.56-7.48,7.19-13.45,7.19-9.54,0-15.8-5.34-15.8-16.08v-21.7h5V205c0,8,4.13,12,11.25,12,7.82,0,12.73-5.06,12.73-13.59Z"/><path class="cls-1" d="M197.82,221.19V168.4h5.05v52.79Z"/><path class="cls-1" d="M245.2,198v23.19h-4.83v-5.83c-2.28,3.84-6.69,6.19-12.88,6.19-8.47,0-13.66-4.41-13.66-10.89,0-5.76,3.7-10.6,14.44-10.6h11.88v-2.28c0-6.4-3.63-9.88-10.6-9.88a19,19,0,0,0-12.45,4.41l-2.28-3.77c3.77-3.21,9.32-5.06,15.23-5.06C239.72,183.48,245.2,188.32,245.2,198Zm-5,11.95v-6.12H228.41c-7.26,0-9.6,2.85-9.6,6.69,0,4.34,3.48,7,9.46,7C234,217.56,238.16,214.86,240.15,210Z"/><path class="cls-1" d="M263.77,191.1c2.35-5,7.12-7.62,14-7.62v4.91c-.43,0-.86-.07-1.21-.07-7.83,0-12.6,5-12.6,13.81v19.06h-5.05V183.77h4.84Z"/><path class="cls-1" d="M291.09,217.64a11.41,11.41,0,0,1-1,4.12l-3,9.82h-3.42l2.42-10.31a3.61,3.61,0,0,1-2.56-3.63,3.77,3.77,0,1,1,7.54,0Z"/><path class="cls-1" d="M373.91,221.19h-6.83L367,184.91l-18,30.24h-3.27l-18-30v36.07H320.9v-49.8h5.83l20.78,35,20.49-35h5.84Z"/><path class="cls-1" d="M421.79,204.62h-30.6c.85,6.61,6.19,11,13.66,11a14.09,14.09,0,0,0,10.89-4.55l3.77,4.41c-3.42,4-8.61,6.12-14.87,6.12-12.17,0-20.28-8-20.28-19.28s8-19.21,18.93-19.21,18.64,7.82,18.64,19.42C421.93,203.12,421.86,204,421.79,204.62Zm-30.6-4.91h24.19a12.17,12.17,0,0,0-24.19,0Z"/><path class="cls-1" d="M460.13,168.4H467v52.79h-6.54v-6c-3.06,4.27-7.9,6.4-13.45,6.4-11,0-19.07-7.76-19.07-19.28s8-19.21,19.07-19.21c5.34,0,10,2,13.16,6.05Zm.08,33.94c0-8-5.48-13.24-12.67-13.24s-12.74,5.2-12.74,13.24,5.48,13.3,12.74,13.3S460.21,210.38,460.21,202.34Z"/><path class="cls-1" d="M478.7,171.81a4.5,4.5,0,0,1,4.63-4.48,4.42,4.42,0,0,1,4.62,4.34,4.63,4.63,0,0,1-9.25.14Zm1.21,49.38V183.48h6.83v37.71Z"/><path class="cls-1" d="M528.08,183.48h6.83v37.71h-6.48V215.5c-2.77,3.92-7.47,6.12-12.8,6.12-9.75,0-16.23-5.34-16.23-16.43V183.48h6.83V204.4c0,7.4,3.7,11.1,10.18,11.1,7.11,0,11.67-4.41,11.67-12.52Z"/><path class="cls-1" d="M610.54,199.49v21.7h-6.83V200.27c0-7.39-3.56-11-9.75-11-6.83,0-11.31,4.34-11.31,12.52v19.42h-6.83V200.27c0-7.39-3.56-11-9.75-11-6.83,0-11.32,4.34-11.32,12.52v19.42h-6.83V183.48h6.55v5.62c2.7-3.84,7.33-6,13-6s10.6,2.27,13.09,7c2.85-4.27,8.11-7,14.52-7C604.28,183.13,610.54,188.39,610.54,199.49Z"/><path class="cls-1" d="M628,217.64a11.62,11.62,0,0,1-1,4.12l-3,9.82h-3.42l2.42-10.31a3.61,3.61,0,0,1-2.56-3.63,3.78,3.78,0,1,1,7.55,0Z"/><path class="cls-1" d="M652.86,215.93l3.21-7.19a27.58,27.58,0,0,0,16.43,5.48c7.76,0,11-2.77,11-6.47,0-10.75-29.6-3.7-29.6-22.2,0-8,6.4-14.87,20.07-14.87,6,0,12.23,1.56,16.57,4.41l-2.91,7.18a27.75,27.75,0,0,0-13.74-3.91c-7.68,0-10.81,3-10.81,6.76,0,10.6,29.53,3.7,29.53,22,0,8-6.48,14.8-20.14,14.8C664.75,221.91,657,219.49,652.86,215.93Z"/><path class="cls-1" d="M736.53,205H706.72c1.07,5.55,5.69,9.11,12.31,9.11A13.61,13.61,0,0,0,729.35,210l4.77,5.48c-3.42,4.06-8.76,6.19-15.3,6.19-12.74,0-21-8.18-21-19.49s8.32-19.43,19.64-19.43c11.1,0,19.21,7.76,19.21,19.64C736.68,203.12,736.61,204.19,736.53,205Zm-29.88-5.9h21.56a10.34,10.34,0,0,0-10.74-9.25A10.5,10.5,0,0,0,706.65,199.14Z"/><path class="cls-1" d="M808.75,199.42v21.77h-8.89V200.56c0-6.76-3.14-10-8.54-10-5.84,0-9.89,3.84-9.89,11.38v19.28h-8.9V200.56c0-6.76-3.13-10-8.53-10-5.91,0-9.89,3.84-9.89,11.38v19.28h-8.9v-38h8.47V188c2.84-3.42,7.26-5.27,12.45-5.27,5.55,0,10.17,2.07,12.81,6.33,3.06-3.91,8.18-6.33,14.23-6.33C802.35,182.77,808.75,188,808.75,199.42Z"/><path class="cls-1" d="M818.92,171.6a5.41,5.41,0,0,1,5.69-5.33c3.27,0,5.69,2.2,5.69,5.12a5.7,5.7,0,0,1-11.38.21Zm1.21,49.59v-38H829v38Z"/><path class="cls-1" d="M881,202.2c0,11.81-8.18,19.49-19.28,19.49-5.2,0-9.61-1.78-12.59-5.41v4.91h-8.47V168.4h8.89v19.42a15.82,15.82,0,0,1,12.17-5C872.85,182.77,881,190.39,881,202.2Zm-9,0c0-7.26-4.84-11.89-11.25-11.89s-11.31,4.63-11.31,11.89,4.91,11.88,11.31,11.88S872,209.45,872,202.2Z"/><path class="cls-1" d="M886.36,202.2c0-11.39,8.54-19.43,20.21-19.43s20.28,8,20.28,19.43-8.47,19.49-20.28,19.49S886.36,213.58,886.36,202.2Zm31.52,0c0-7.26-4.84-11.89-11.31-11.89s-11.24,4.63-11.24,11.89,4.84,11.88,11.24,11.88S917.88,209.45,917.88,202.2Z"/><path class="cls-1" d="M935.38,221.19V168.4h8.9v52.79Z"/><path class="cls-1" d="M984.26,168.4h8.9v52.79h-8.54v-4.91c-3,3.63-7.4,5.41-12.6,5.41-11,0-19.21-7.68-19.21-19.49S961,182.77,972,182.77c4.91,0,9.25,1.64,12.24,5.13Zm.14,33.8c0-7.26-4.91-11.89-11.31-11.89s-11.31,4.63-11.31,11.89,4.91,11.88,11.31,11.88S984.4,209.45,984.4,202.2Z"/><path class="cls-1" d="M1010.37,217.64a11.56,11.56,0,0,1-1,4.12l-3,9.82H1003l2.42-10.31a3.61,3.61,0,0,1-2.56-3.63,3.77,3.77,0,1,1,7.54,0Z"/><path class="cls-1" d="M1084.29,207.6c0,8.61-6.83,13.59-19.92,13.59h-25.76v-49.8H1063c12.45,0,18.85,5.19,18.85,13a12,12,0,0,1-6.61,10.95C1080.74,197.07,1084.29,201.34,1084.29,207.6Zm-34.22-27.53v11.74h11.46c5.62,0,8.68-2,8.68-5.91s-3.06-5.83-8.68-5.83Zm13.45,32.44c6,0,9.18-1.85,9.18-6.12s-3.21-6.19-9.18-6.19h-13.45v12.31Z"/><path class="cls-1" d="M1089.41,202.05c0-11.52,8.9-19.7,21.06-19.7s21,8.18,21,19.7-8.82,19.71-21,19.71S1089.41,213.58,1089.41,202.05Zm30.81,0c0-6.61-4.2-10.6-9.75-10.6s-9.82,4-9.82,10.6,4.27,10.61,9.82,10.61S1120.22,208.67,1120.22,202.05Z"/><path class="cls-1" d="M1138.86,221.19V168.4H1150v52.79Z"/><path class="cls-1" d="M1188.17,168.4h11.1v52.79h-10.61v-4.41c-2.77,3.35-6.83,5-12,5-10.81,0-19.14-7.68-19.14-19.71s8.33-19.7,19.14-19.7c4.7,0,8.68,1.49,11.46,4.62Zm.21,33.65c0-6.61-4.27-10.6-9.75-10.6s-9.82,4-9.82,10.6,4.27,10.61,9.82,10.61S1188.38,208.67,1188.38,202.05Z"/><path class="cls-1" d="M30.38,296.46l9.39,16.65H34.08l-9-15.87c-.79.07-1.71.07-2.57.07H8.39l-3.13,15.8H0L10,263.3H27.89c11.31,0,17.79,5.2,17.79,14.09C45.68,287.64,40,294.25,30.38,296.46Zm-7.68-3.7c11.24,0,17.71-5.05,17.71-14.87,0-6.55-4.62-10-12.87-10H14.3l-5.05,24.9Z"/><path class="cls-1" d="M55.07,295.82a10.62,10.62,0,0,0-.07,1.49C55,304.78,59.26,309,67.87,309c5,0,9.47-1.78,12.24-4.69l2.28,3.62c-3.49,3.49-9.11,5.55-14.94,5.55-10.82,0-17.44-6.11-17.44-15.93,0-12.74,8.76-22.13,20.71-22.13,9.89,0,16.29,5.9,16.29,15.87a23.84,23.84,0,0,1-.49,4.55Zm.49-3.77H82.25a9.25,9.25,0,0,0,.07-1.35c0-7.12-4.77-11-11.74-11C63,279.67,57.41,284.58,55.56,292.05Z"/><path class="cls-1" d="M130.62,275.68h4.84l-6.54,32.88c-2.63,13.23-9.61,18.71-21.77,18.71-7.05,0-12.81-2-16.65-5.62l3-3.84c3,3.05,8,5,14,5,9.46,0,14.45-4.35,16.22-13.38l.86-4.13a19.37,19.37,0,0,1-14.94,6.41c-9.89,0-16.51-5.77-16.51-15.09,0-12,8.89-21.2,21.34-21.2,6.91,0,12.46,2.84,14.59,8.54Zm-3.69,15c0-6.83-4.63-10.89-12.39-10.89-9.46,0-16.29,7-16.29,16.51,0,6.83,4.55,10.88,12.38,10.88C120,307.2,126.93,300.23,126.93,290.7Z"/><path class="cls-1" d="M178.29,275.68h5.05l-7.47,37.43H171l1.21-6c-3.63,4.34-8.69,6.33-14.45,6.33-8.39,0-13.3-4.55-13.3-12.23a22.39,22.39,0,0,1,.42-4.2l4.27-21.35h5.05L150,297a19.46,19.46,0,0,0-.35,3.34c0,5.41,3.13,8.54,9.53,8.54,7.9,0,13.38-4.41,15.16-13.09Z"/><path class="cls-1" d="M190,313.11l10.53-52.8h5.05l-10.53,52.8Z"/><path class="cls-1" d="M245.74,275.68h5l-7.47,37.43h-4.84l1.21-5.91a19.16,19.16,0,0,1-14.58,6.26c-9.61,0-16.3-6-16.3-15.86,0-12.81,9-22.2,21.13-22.2,7.12,0,12.1,2.92,14.23,8.11Zm-3.35,15.8c0-7.33-4.48-11.67-12.3-11.67-9.33,0-16.23,7.4-16.23,17.57,0,7.33,4.49,11.6,12.31,11.6C235.49,309,242.39,301.65,242.39,291.48Z"/><path class="cls-1" d="M268.36,282.51c3.35-4.91,8.26-7.11,15.37-7.11l-.93,4.91c-.49,0-.85-.07-1.42-.07-8,0-13.3,4.55-15.15,13.87l-3.77,19H257.4l7.4-37.43h4.84Z"/><path class="cls-1" d="M294,309.55a11.61,11.61,0,0,1-1,4.13l-3,9.82h-3.42L289,313.18a3.61,3.61,0,0,1-2.56-3.63,3.77,3.77,0,1,1,7.54,0Z"/><path class="cls-1" d="M376.86,263.3H383l-10,49.81h-6.83l7.26-36-23.56,29.95h-3.27L334.17,276.4l-7.33,36.71H320l10-49.81h5.76l13.88,35.08Z"/><path class="cls-1" d="M393.65,296.39v.42c0,6.91,3.84,10.75,12,10.75a16.9,16.9,0,0,0,11.67-4.34l2.92,4.91c-3.7,3.48-9.4,5.41-15.16,5.41-11.17,0-18.07-6.41-18.07-16.37,0-12.81,9-22.13,21.27-22.13,10.18,0,16.87,6.12,16.87,16.3a28.71,28.71,0,0,1-.5,5.05Zm.71-5h24.33c.36-6.9-4.05-10.68-10.74-10.68S396.07,284.86,394.36,291.41Z"/><path class="cls-1" d="M469.7,260.31h6.83L466,313.11h-6.54l.92-4.63a18.75,18.75,0,0,1-13.3,5.06c-9.61,0-16.65-6.12-16.65-16.3,0-12.95,9.11-22.2,21.34-22.2,6.48,0,11.25,2.35,13.66,6.83Zm-6.4,31.31c0-6.69-4.06-10.6-11.24-10.6-8.47,0-14.73,6.62-14.73,15.94,0,6.61,4.05,10.6,11.24,10.6C457.11,307.56,463.3,300.94,463.3,291.62Z"/><path class="cls-1" d="M479,313.11l7.47-37.71h6.83l-7.47,37.71Zm8.61-49.1a4.71,4.71,0,0,1,4.91-4.76,4.16,4.16,0,0,1,4.34,4,4.72,4.72,0,0,1-5,4.91A4.12,4.12,0,0,1,487.63,264Z"/><path class="cls-1" d="M534.66,275.4h6.83L534,313.11h-6.55l.93-4.84a18.46,18.46,0,0,1-13.52,5.27c-8.26,0-13.52-4.63-13.52-12.67a23.76,23.76,0,0,1,.43-4.34L506,275.4h6.84l-4.2,21.2a17.13,17.13,0,0,0-.36,3.2c0,4.84,2.85,7.62,8.61,7.62,7.12,0,12.17-4,13.8-12Z"/><path class="cls-1" d="M614.27,287.49a27.4,27.4,0,0,1-.49,4.49l-4.2,21.13h-6.83L607,292a19.43,19.43,0,0,0,.35-3.28c0-4.83-2.7-7.54-8.32-7.54-6.91,0-11.6,3.84-13.24,11.81l-4,20.14h-6.83L579.12,292a17.14,17.14,0,0,0,.36-3.21c0-4.83-2.7-7.61-8.4-7.61-7,0-11.59,3.91-13.23,12l-4,19.92H547l7.47-37.71h6.54l-.92,4.69c3.41-3.48,8-5,13.09-5,5.9,0,10.17,2.35,12.09,6.69,3.85-4.48,9.11-6.69,15.37-6.69C609.22,275,614.27,279.52,614.27,287.49Z"/><path class="cls-1" d="M630.85,309.55a11.67,11.67,0,0,1-1,4.13l-3,9.82h-3.41l2.42-10.32a3.6,3.6,0,0,1-2.57-3.63,3.78,3.78,0,1,1,7.55,0Z"/><path class="cls-1" d="M653.11,308l3.92-7.26a26.47,26.47,0,0,0,16.22,5.41c7.26,0,12-2.64,12-7.05,0-9.25-25.11-4.41-25.11-20.42,0-9.82,8.82-16.08,21.7-16.08,6.4,0,12.45,1.5,16.65,4.2l-3.63,7.33a24.48,24.48,0,0,0-13.52-3.84c-7.54,0-12,3.06-12,7.4,0,9.32,25.12,4.76,25.12,20,0,9.89-8.89,16.15-22,16.15C664.57,313.82,657,311.33,653.11,308Z"/><path class="cls-1" d="M739.2,296.74H709c.15,6.05,3.63,9.32,11,9.32a16,16,0,0,0,11-3.91l3.7,6.19c-4,3.56-9.75,5.27-15.58,5.27-11.46,0-18.72-6.62-18.72-16.72,0-12.88,9.18-22.2,21.92-22.2,10.53,0,17.5,6.26,17.5,16.65A25.34,25.34,0,0,1,739.2,296.74Zm-29.38-5.9h21.77c.07-5.84-3.84-9-9.75-9A12,12,0,0,0,709.82,290.84Z"/><path class="cls-1" d="M812.27,287.35a22.75,22.75,0,0,1-.5,4.7l-4.19,21.06h-8.9l4.2-20.85a15.35,15.35,0,0,0,.28-3c0-4.41-2.34-6.83-7.25-6.83-6.12,0-10.18,3.49-11.67,10.89l-4,19.78h-8.89l4.2-20.85a15.35,15.35,0,0,0,.28-3c0-4.41-2.35-6.83-7.26-6.83-6.12,0-10.17,3.49-11.66,11l-4,19.71H744l7.54-38h8.47l-.79,4.13a17.74,17.74,0,0,1,12.45-4.55c5.48,0,9.75,2.13,11.82,6.26a19.67,19.67,0,0,1,15-6.26C806.94,274.69,812.27,279.1,812.27,287.35Z"/><path class="cls-1" d="M819,313.11l7.55-38h8.89l-7.54,38Zm8.68-49.24c0-3.2,2.42-5.69,6-5.69,3.2,0,5.34,2.13,5.34,4.77a5.68,5.68,0,0,1-6,5.9A5,5,0,0,1,827.63,263.87Z"/><path class="cls-1" d="M883.84,291.34c0,13-9.25,22.27-21.34,22.27-6.19,0-10.89-2.21-13.31-6.55L848,313.11h-8.47L850,260.31h8.9l-3.63,18.36a18.21,18.21,0,0,1,11.81-4C876.44,274.69,883.84,280.81,883.84,291.34Zm-9,.42c0-5.9-3.63-9.53-10-9.53-7.54,0-13.09,5.83-13.09,14.23,0,5.9,3.63,9.53,10,9.53C869.33,306,874.88,300.16,874.88,291.76Z"/><path class="cls-1" d="M888.68,296.89c0-12.74,9.39-22.2,22.55-22.2,11.24,0,18.5,6.54,18.5,16.65,0,12.73-9.46,22.27-22.63,22.27C895.93,313.61,888.68,306.92,888.68,296.89Zm32.09-5.13c0-5.9-3.63-9.53-10-9.53-7.54,0-13.09,5.83-13.09,14.23,0,5.9,3.63,9.53,10,9.53C915.21,306,920.77,300.16,920.77,291.76Z"/><path class="cls-1" d="M934.21,313.11l10.53-52.8h8.89l-10.53,52.8Z"/><path class="cls-1" d="M993.55,260.31h8.89l-10.53,52.8h-8.47l.79-3.91a18.36,18.36,0,0,1-12.31,4.41c-9.4,0-16.72-6.19-16.72-16.72,0-12.95,9.18-22.2,21.34-22.2,5.91,0,10.46,2,13,5.9Zm-6.34,31.45c0-5.9-3.62-9.53-10-9.53-7.54,0-13,5.83-13,14.23,0,5.9,3.63,9.53,10,9.53C981.74,306,987.21,300.16,987.21,291.76Z"/><path class="cls-1" d="M1013,309.55a11.67,11.67,0,0,1-1,4.13l-3,9.82h-3.41l2.42-10.32a3.59,3.59,0,0,1-2.56-3.63,3.77,3.77,0,1,1,7.54,0Z"/><path class="cls-1" d="M1085.89,297.38c0,10.68-9.46,15.73-22.41,15.73h-26.11l10-49.81h24.05c10.74,0,16.72,4.06,16.72,11.39,0,6.26-3.63,10.53-8.89,12.73A10.1,10.1,0,0,1,1085.89,297.38Zm-21.7,7.05c6.34,0,10.25-2.42,10.25-7.19,0-3.7-2.92-5.12-7.47-5.12h-14l-2.42,12.31ZM1057,272l-2.35,11.74h11.74c6,0,9.6-2.42,9.6-7,0-3.27-2.7-4.7-7.32-4.7Z"/><path class="cls-1" d="M1091.79,296.53c0-12.74,9.68-22.27,23.13-22.27,11.74,0,19.28,6.76,19.28,17.15,0,12.73-9.6,22.27-23.12,22.27C1099.41,313.68,1091.79,306.85,1091.79,296.53Zm31.17-4.62c0-5.13-3.13-8.54-8.68-8.54-6.55,0-11.24,5.19-11.24,12.66,0,5.27,3.2,8.54,8.75,8.54C1118.26,304.57,1123,299.45,1123,291.91Z"/><path class="cls-1" d="M1137.61,313.11l10.53-52.8h11.1l-10.53,52.8Z"/><path class="cls-1" d="M1197.38,260.31h11.1L1198,313.11h-10.53l.78-3.84a17,17,0,0,1-11.74,4.41c-8.89,0-16.51-6.26-16.51-17.15,0-12.88,9.32-22.27,21.13-22.27,5.55,0,9.89,1.85,12.38,5.62Zm-6.26,31.6c0-5.2-3.2-8.47-8.75-8.47-6.55,0-11.25,5.12-11.25,12.59,0,5.2,3.21,8.47,8.76,8.47C1186.42,304.5,1191.12,299.38,1191.12,291.91Z"/><path class="cls-1" d="M332.92,93.6H312.59l-.13-56.16L284.91,83.7h-9.76L247.74,38.64v55H227.42V0h17.91l35,58.17L314.87,0h17.78Z"/><path class="cls-1" d="M348.3,57.63c0-21.66,16.71-37,39.58-37s39.44,15.38,39.44,37-16.58,37-39.44,37S348.3,79.29,348.3,57.63Zm57.9,0c0-12.44-7.89-19.92-18.32-19.92s-18.46,7.48-18.46,19.92,8,19.92,18.46,19.92S406.2,70.07,406.2,57.63Z"/><path class="cls-1" d="M514.78,52.42V93.6H493.92v-38c0-11.63-5.35-17-14.58-17-10,0-17.25,6.15-17.25,19.39V93.6H441.23V21.66h19.93v8.43c5.61-6.16,14-9.5,23.8-9.5C501.94,20.59,514.78,30.49,514.78,52.42Z"/><path class="cls-1" d="M580,90.12c-4.28,3.08-10.56,4.55-17,4.55-17,0-26.88-8.69-26.88-25.81V39.31h-11.1v-16h11.1V5.75H557V23.27H575v16H557V68.6c0,6.15,3.35,9.49,9,9.49a14,14,0,0,0,8.42-2.68Z"/><path class="cls-1" d="M584.85,86.91l6.95-15c6.42,4.14,16.18,7,25,7,9.63,0,13.24-2.54,13.24-6.55,0-11.77-43.46.27-43.46-28.48,0-13.64,12.31-23.27,33.3-23.27,9.89,0,20.86,2.28,27.68,6.29l-6.95,14.84a41.36,41.36,0,0,0-20.73-5.35c-9.36,0-13.37,2.94-13.37,6.69,0,12.3,43.45.4,43.45,28.74,0,13.38-12.43,22.87-34,22.87C603.83,94.67,591.53,91.33,584.85,86.91Z"/><path class="cls-1" d="M732.87,63.51H678.45c2,9,9.63,14.44,20.59,14.44,7.62,0,13.1-2.27,18.05-7l11.1,12c-6.69,7.62-16.72,11.63-29.69,11.63-24.87,0-41-15.65-41-37s16.44-37,38.37-37c21.13,0,37.44,14.18,37.44,37.31C733.27,59.5,733,61.78,732.87,63.51ZM678.18,51.35h35.43c-1.47-9.1-8.29-15-17.65-15S679.65,42.12,678.18,51.35Z"/><path class="cls-1" d="M767.1,31.15c5.08-6.95,13.64-10.56,24.74-10.56V39.85c-1.74-.14-3.08-.27-4.68-.27-11.5,0-19.12,6.28-19.12,20.06v34H747.18V21.66H767.1Z"/><path class="cls-1" d="M824.2,31.15c5.08-6.95,13.64-10.56,24.74-10.56V39.85c-1.74-.14-3.08-.27-4.68-.27-11.5,0-19.12,6.28-19.12,20.06v34H804.28V21.66H824.2Z"/><path class="cls-1" d="M920.35,52.55V93.6H900.82v-9c-3.87,6.55-11.36,10-21.93,10-16.84,0-26.87-9.36-26.87-21.8,0-12.7,9-21.52,30.89-21.52h16.58c0-9-5.35-14.18-16.58-14.18-7.62,0-15.51,2.54-20.73,6.69l-7.49-14.58c7.89-5.61,19.52-8.69,31-8.69C907.64,20.59,920.35,30.75,920.35,52.55ZM899.49,70.87V63.51H885.18c-9.76,0-12.84,3.61-12.84,8.43,0,5.21,4.42,8.69,11.77,8.69C891.06,80.63,897.08,77.42,899.49,70.87Z"/><path class="cls-1" d="M985.6,90.12c-4.28,3.08-10.56,4.55-17,4.55-17,0-26.88-8.69-26.88-25.81V39.31h-11.1v-16h11.1V5.75H962.6V23.27h17.92v16H962.6V68.6c0,6.15,3.35,9.49,9,9.49A14,14,0,0,0,980,75.41Z"/></g></g></svg>